# xmcd CD database file
#
# Track frame offsets:
#	150
#	15973
#	28370
#	52140
#	67569
#	87819
#	103459
#	117753
#	120494
#	134891
#	145117
#	168103
#	183855
#	197721
#	213602
#	232527
#	264069
#
# Disc length: 3877 seconds
#
# Revision: 0
# Processed by: cddbd v1.5.2PL0 Copyright (c) Steve Scherf et al.
# Submitted via: CDex 1.51
#
DISCID=e10f2311
DTITLE=Lo Jay - Ma Trace
DYEAR=2003
DGENRE=Jazz
TTITLE0=J'attends
TTITLE1=Ne grandis pas trop vite
TTITLE2=Douceureuse symphonie
TTITLE3=Je tourne en rond
TTITLE4=Ma trace
TTITLE5=Ne me laisse pas plantée là
TTITLE6=J'ai perdu la mémoire
TTITLE7=Instrumental
TTITLE8=Sortez-moi de l'ombre
TTITLE9=Reines
TTITLE10=Et si tu restais
TTITLE11=Qu'est-ce que tu espères
TTITLE12=Chanson pour un solitaire
TTITLE13=Ne le dis pas
TTITLE14=All I want is ..
TTITLE15=Dis-le-moi
TTITLE16=DATA
EXTD=YEAR: 2003
EXTT0=
EXTT1=
EXTT2=
EXTT3=
EXTT4=
EXTT5=
EXTT6=
EXTT7=
EXTT8=
EXTT9=
EXTT10=
EXTT11=
EXTT12=
EXTT13=
EXTT14=
EXTT15=
EXTT16=
PLAYORDER=
